<svg xmlns="http://www.w3.org/2000/svg" xmlns:xlink="http://www.w3.org/1999/xlink" version="1.1" width="1000" height="1000" viewBox="0 0 1000 1000" xml:space="preserve">
<desc>Created with Fabric.js 3.5.0</desc>
<defs>
</defs>
<rect x="0" y="0" width="100%" height="100%" fill="#ffffff"/>
<g transform="matrix(1.2737 0 0 1.2737 500.0012 500.0008)" id="956447">
<g style="" vector-effect="non-scaling-stroke">
		<g transform="matrix(1 0 0 1 -169.9816 -82.3133)">
<path style="stroke: none; stroke-width: 1; stroke-dasharray: none; stroke-linecap: butt; stroke-dashoffset: 0; stroke-linejoin: miter; stroke-miterlimit: 4; is-custom-font: none; font-file-url: none; fill: rgb(163,82,9); fill-rule: nonzero; opacity: 1;" transform=" translate(-186.8894, -145.1255)" d="M 151.45532 107.12088 l 26.99368 36.84888 s 23.01451 9.67771 49.9126 29.10911 l -6.43865 10.05121 s -44.39713 -18.1797 -55.75874 -25.86109 l -20.74693 -32.52529 l 6.03804 -17.62282 Z" stroke-linecap="round"/>
</g>
		<g transform="matrix(0.5642 -0.8256 0.8256 0.5642 -123.8641 -44.3679)">
<ellipse style="stroke: none; stroke-width: 1; stroke-dasharray: none; stroke-linecap: butt; stroke-dashoffset: 0; stroke-linejoin: miter; stroke-miterlimit: 4; is-custom-font: none; font-file-url: none; fill: rgb(163,82,9); fill-rule: nonzero; opacity: 1;" cx="0" cy="0" rx="8.26737" ry="13.92399"/>
</g>
		<g transform="matrix(1 0 0 1 -197.9282 -112.6234)">
<path style="stroke: none; stroke-width: 1; stroke-dasharray: none; stroke-linecap: butt; stroke-dashoffset: 0; stroke-linejoin: miter; stroke-miterlimit: 4; is-custom-font: none; font-file-url: none; fill: rgb(0,78,152); fill-rule: nonzero; opacity: 1;" transform=" translate(-158.9429, -114.8154)" d="M 138.26109 75.6637 l 8.8339 -2.50569 s 5.1422 0.00984 8.04323 5.0606 c 2.90102 5.05075 23.44113 50.08457 22.46756 51.82912 c -0.97357 1.74455 -2.33263 2.13004 -0.58808 3.10361 c 1.74455 0.97357 3.34184 0.48004 2.15279 1.93885 s 0.4542 4.66371 0.4542 4.66371 l -22.66043 16.71891 l -18.70316 -80.80912 Z" stroke-linecap="round"/>
</g>
		<g transform="matrix(1 0 0 1 -244.9322 197.7441)">
<polygon style="stroke: none; stroke-width: 1; stroke-dasharray: none; stroke-linecap: butt; stroke-dashoffset: 0; stroke-linejoin: miter; stroke-miterlimit: 4; is-custom-font: none; font-file-url: none; fill: rgb(163,82,9); fill-rule: nonzero; opacity: 1;" points="-7.951,20.7856 2.8263,20.7845 7.9532,-20.7856 -7.9532,-20.7845 -7.951,20.7856 "/>
</g>
		<g transform="matrix(1 0 0 1 -235.4113 215.5575)">
<path style="stroke: none; stroke-width: 1; stroke-dasharray: none; stroke-linecap: butt; stroke-dashoffset: 0; stroke-linejoin: miter; stroke-miterlimit: 4; is-custom-font: none; font-file-url: none; fill: rgb(47,46,65); fill-rule: nonzero; opacity: 1;" transform=" translate(-121.4597, -442.9964)" d="M 140.9122 445.72392 h 0 c 0.33555 0.56513 0.51263 2.38921 0.51263 3.04645 h 0 c 0 2.02017 -1.63767 3.65784 -3.65783 3.65784 h -33.37606 c -1.37816 0 -2.49539 -1.11722 -2.49539 -2.49539 v -1.38955 s -1.6511 -4.17631 1.74822 -9.32386 c 0 0 4.22487 4.03063 10.5379 -2.2824 l 1.86165 -3.3725 l 13.47584 9.8555 l 7.46946 0.91942 c 1.63414 0.20115 3.08299 -0.03122 3.92358 1.38451 Z" stroke-linecap="round"/>
</g>
		<g transform="matrix(1 0 0 1 -202.5905 188.4211)">
<polygon style="stroke: none; stroke-width: 1; stroke-dasharray: none; stroke-linecap: butt; stroke-dashoffset: 0; stroke-linejoin: miter; stroke-miterlimit: 4; is-custom-font: none; font-file-url: none; fill: rgb(163,82,9); fill-rule: nonzero; opacity: 1;" points="-11.286,19.6056 -0.6575,21.3902 11.286,-18.7559 -4.4007,-21.3902 -11.286,19.6056 "/>
</g>
		<g transform="matrix(1 0 0 1 -196.9596 208.9184)">
<path style="stroke: none; stroke-width: 1; stroke-dasharray: none; stroke-linecap: butt; stroke-dashoffset: 0; stroke-linejoin: miter; stroke-miterlimit: 4; is-custom-font: none; font-file-url: none; fill: rgb(47,46,65); fill-rule: nonzero; opacity: 1;" transform=" translate(-159.9114, -436.3572)" d="M 179.44907 441.3422 h 0 c 0.23728 0.61292 0.10969 2.44112 0.0008 3.08928 h 0 c -0.33471 1.99225 -2.22108 3.33595 -4.21332 3.00124 l -32.91477 -5.52988 c -1.35912 -0.22834 -2.27579 -1.51523 -2.04745 -2.87434 l 0.23023 -1.37035 s -0.93633 -4.39215 3.26888 -8.90534 c 0 0 3.49867 4.67491 10.77042 -0.5049 l 2.39469 -3.01745 l 11.65669 11.95202 l 7.21389 2.14428 c 1.57823 0.46912 3.04555 0.48001 3.63996 2.01544 Z" stroke-linecap="round"/>
</g>
		<g transform="matrix(1 0 0 1 -225.4418 99.0848)">
<path style="stroke: none; stroke-width: 1; stroke-dasharray: none; stroke-linecap: butt; stroke-dashoffset: 0; stroke-linejoin: miter; stroke-miterlimit: 4; is-custom-font: none; font-file-url: none; fill: rgb(47,46,65); fill-rule: nonzero; opacity: 1;" transform=" translate(-131.4293, -326.5236)" d="M 165.08713 222.1622 s 14.47992 16.9521 14.47992 32.49152 s 0.35317 64.35457 0.35317 64.35457 c 0 0 -8.47605 76.20658 -10.59506 82.56362 c -2.11901 6.35704 -3.17852 16.9521 -3.17852 16.9521 l -20.48379 -4.94436 s -2.82535 -71.69325 5.6507 -88.64535 l -20.48379 -57.91967 l -7.06337 163.87029 h -23.7791 s -12.24411 -86.17317 -5.88707 -108.77597 c 0 0 -14.12675 -86.17317 -10.59506 -91.11753 c 3.53169 -4.94436 81.58197 -8.82922 81.58197 -8.82922 Z" stroke-linecap="round"/>
</g>
		<g transform="matrix(1 0 0 1 -235.2236 -85.4459)">
<path style="stroke: none; stroke-width: 1; stroke-dasharray: none; stroke-linecap: butt; stroke-dashoffset: 0; stroke-linejoin: miter; stroke-miterlimit: 4; is-custom-font: none; font-file-url: none; fill: rgb(0,78,152); fill-rule: nonzero; opacity: 1;" transform=" translate(-121.6474, -141.9929)" d="M 112.46499 53.34756 l 19.07111 1.41267 l 6.35704 10.59506 s 14.83309 6.35704 16.9521 15.53942 c 2.11901 9.18239 2.82535 116.54568 2.82535 116.54568 l 10.59506 15.53942 l -0.70634 13.42041 l -84.76049 4.23802 v -12.90317 l -7.76971 -15.35033 s 8.47605 -122.90271 10.59506 -123.60905 c 2.11901 -0.70634 18.36477 -12.00774 18.36477 -12.00774 l 8.47605 -13.42041 Z" stroke-linecap="round"/>
</g>
		<g transform="matrix(1 0 0 1 -235.7747 -200.7351)">
<circle style="stroke: none; stroke-width: 1; stroke-dasharray: none; stroke-linecap: butt; stroke-dashoffset: 0; stroke-linejoin: miter; stroke-miterlimit: 4; is-custom-font: none; font-file-url: none; fill: rgb(163,82,9); fill-rule: nonzero; opacity: 1;" cx="0" cy="0" r="24.01547"/>
</g>
		<g transform="matrix(1 0 0 1 -240.5023 -201.8059)">
<path style="stroke: none; stroke-width: 1; stroke-dasharray: none; stroke-linecap: butt; stroke-dashoffset: 0; stroke-linejoin: miter; stroke-miterlimit: 4; is-custom-font: none; font-file-url: none; fill: rgb(47,46,65); fill-rule: nonzero; opacity: 1;" transform=" translate(-116.3688, -25.6329)" d="M 140.27905 7.38731 c -1.22197 -3.46578 -4.61208 -5.56839 -8.28613 -5.48649 c -0.15581 0.00343 -0.31131 0.00199 -0.46542 -0.00434 c -1.85026 -0.07565 -3.62619 -0.7076 -5.44048 -1.07833 c -3.38133 -0.69101 -6.94664 -0.45966 -10.21031 0.66248 c -1.01445 0.34882 -2.03016 0.78745 -3.10291 0.78757 c -1.07274 0.00015 -2.24124 -0.58808 -2.50289 -1.62838 c -0.06211 0.94187 -0.12405 1.88369 -0.18599 2.82551 c -0.34916 -0.76229 -0.69815 -1.52463 -1.04731 -2.28696 l -0.69907 3.04009 l -2.23975 -2.54074 c 0.20029 1.11987 -0.4526 2.24857 -1.33659 2.96455 c -0.88398 0.71602 -1.97579 1.11208 -3.02239 1.55816 c -4.51696 1.92538 -8.75815 5.33425 -10.05965 10.06887 c -0.82233 2.9913 -0.3922 6.16599 0.04356 9.23746 c 0.38511 2.71533 0.80391 5.5245 2.27986 7.8359 c 0.94613 1.48175 2.30989 2.72857 2.88596 4.38963 c 0.53695 1.54823 0.33356 3.32083 1.09757 4.77063 c 0.76723 1.45622 2.35113 2.2801 3.9013 2.83338 c 1.55005 0.55349 3.19792 0.94488 4.53289 1.90776 c 1.33483 0.96302 2.88417 3.73695 5.79264 3.58767 l 0.93871 -1.76355 c 0.96568 -0.7868 -2.60804 -0.16303 -2.64533 -1.40807 c -0.03729 -1.24504 4.29998 -2.01425 3.6853 -3.09766 c -0.9427 -1.6613 -2.21811 -3.10718 -3.2804 -4.69483 c -1.24232 -1.8567 -2.21931 -4.02607 -1.79064 -6.29222 c 0.16671 -0.88153 0.57928 -1.71424 1.2078 -2.35458 c 1.81162 -1.846 3.83164 -1.03461 5.79476 -0.77056 c 1.35305 0.18217 2.96907 -0.02813 3.67172 -1.19882 c 0.82186 -1.36963 -0.0942 -3.11199 0.01786 -4.70534 c 0.11877 -1.68834 1.39786 -3.07277 2.78986 -4.03532 c 1.39219 -0.96252 2.97284 -1.66379 4.22515 -2.80222 c 1.25228 -1.13852 2.14439 -2.91714 1.59842 -4.51914 c 5.93621 -2.47142 6.84497 -2.70517 13.09608 -1.19801 c -0.29794 -1.56322 -0.71506 -3.10341 -1.24416 -4.60409 Z" stroke-linecap="round"/>
</g>
		<g transform="matrix(1 0 0 1 -286.711 49.1067)">
<path style="stroke: none; stroke-width: 1; stroke-dasharray: none; stroke-linecap: butt; stroke-dashoffset: 0; stroke-linejoin: miter; stroke-miterlimit: 4; is-custom-font: none; font-file-url: none; fill: rgb(230,230,230); fill-rule: nonzero; opacity: 1;" transform=" translate(-70.16, -276.5456)" d="M 38.89356 314.54275 v -72.89503 c 0 -1.99918 0.85217 -3.9129 2.33815 -5.25046 c 1.48586 -1.33732 3.47793 -1.98449 5.46671 -1.77477 c 18.4224 -2.47839 35.77324 -1.29965 51.49784 5.43013 c 1.78116 0 3.23023 1.44905 3.23023 3.23022 v 73.14985 c 0 1.78105 -1.44907 3.23021 -3.23023 3.23021 c -17.3092 -4.05952 -35.56576 -3.00273 -54.1827 0 c -2.82318 0 -5.12 -2.29684 -5.12 -5.12014 Z" stroke-linecap="round"/>
</g>
		<g transform="matrix(1 0 0 1 -286.711 54.0584)">
<path style="stroke: none; stroke-width: 1; stroke-dasharray: none; stroke-linecap: butt; stroke-dashoffset: 0; stroke-linejoin: miter; stroke-miterlimit: 4; is-custom-font: none; font-file-url: none; fill: rgb(242,242,242); fill-rule: nonzero; opacity: 1;" transform=" translate(-70.16, -281.4971)" d="M 38.89356 321.03206 v -73.66565 c 0 -3.89527 3.16898 -7.06428 7.06426 -7.06428 c 17.61624 -4.60921 35.02939 -4.61714 52.23845 0 c 1.78116 0 3.23023 1.44904 3.23023 3.2302 v 72.40112 c 0 1.77844 -1.44478 3.22594 -3.22228 3.23023 c -16.96848 -2.95222 -35.14513 -0.07702 -54.19066 6.98829 c -2.82318 0 -5.12 -2.29685 -5.12 -5.11991 Z" stroke-linecap="round"/>
</g>
		<g transform="matrix(1 0 0 1 -285.5349 32.5768)">
<path style="stroke: none; stroke-width: 1; stroke-dasharray: none; stroke-linecap: butt; stroke-dashoffset: 0; stroke-linejoin: miter; stroke-miterlimit: 4; is-custom-font: none; font-file-url: none; fill: rgb(230,230,230); fill-rule: nonzero; opacity: 1;" transform=" translate(-71.3361, -260.0156)" d="M 79.57216 270.74461 h -16.47266 c -5.91602 0 -10.729 -4.8125 -10.729 -10.72852 s 4.81299 -10.72949 10.729 -10.72949 h 16.47266 c 5.9165 0 10.72949 4.81348 10.72949 10.72949 s -4.81299 10.72852 -10.72949 10.72852 Z" stroke-linecap="round"/>
</g>
		<g transform="matrix(1 0 0 1 -271.9774 -50.4881)">
<path style="stroke: none; stroke-width: 1; stroke-dasharray: none; stroke-linecap: butt; stroke-dashoffset: 0; stroke-linejoin: miter; stroke-miterlimit: 4; is-custom-font: none; font-file-url: none; fill: rgb(163,82,9); fill-rule: nonzero; opacity: 1;" transform=" translate(-84.8936, -176.9507)" d="M 94.66968 126.05669 l -0.62965 38.03222 s -2.01241 29.63995 -7.01004 62.99582 l -11.91241 0.75997 s 1.46567 -52.08104 0.9317 -65.78524 l 0.84241 -30.43814 l 17.77798 -5.56463 Z" stroke-linecap="round"/>
</g>
		<g transform="matrix(0.9994 -0.034 0.034 0.9994 -275.1449 9.3045)">
<ellipse style="stroke: none; stroke-width: 1; stroke-dasharray: none; stroke-linecap: butt; stroke-dashoffset: 0; stroke-linejoin: miter; stroke-miterlimit: 4; is-custom-font: none; font-file-url: none; fill: rgb(163,82,9); fill-rule: nonzero; opacity: 1;" cx="0" cy="0" rx="8.26737" ry="13.92399"/>
</g>
		<g transform="matrix(1 0 0 1 -272.9223 -108.0454)">
<path style="stroke: none; stroke-width: 1; stroke-dasharray: none; stroke-linecap: butt; stroke-dashoffset: 0; stroke-linejoin: miter; stroke-miterlimit: 4; is-custom-font: none; font-file-url: none; fill: rgb(0,78,152); fill-rule: nonzero; opacity: 1;" transform=" translate(-83.9488, -119.3934)" d="M 94.48458 77.63734 l -9.1763 0.3342 s -4.88967 1.59169 -6.09575 7.29007 c -1.20608 5.69837 -9.66037 64.67115 -8.19721 66.03148 c 1.46315 1.36032 2.87489 1.30891 1.51457 2.77206 c -1.36032 1.46315 -3.03198 1.48508 -1.45172 2.50721 c 1.58026 1.02213 1.00293 4.57719 1.00293 4.57719 l 25.37952 -1.79809 l -2.97604 -81.71412 Z" stroke-linecap="round"/>
</g>
		<g transform="matrix(1 0 0 1 120.5949 -18.7247)">
<path style="stroke: none; stroke-width: 1; stroke-dasharray: none; stroke-linecap: butt; stroke-dashoffset: 0; stroke-linejoin: miter; stroke-miterlimit: 4; is-custom-font: none; font-file-url: none; fill: rgb(63,61,86); fill-rule: nonzero; opacity: 1;" transform=" translate(-477.466, -208.7141)" d="M 699.91591 417.42821 h -244.15186 c -1.4165 0 -2.81934 -0.2168 -4.16943 -0.64355 l -0.14355 -0.05762 c -76.44971 -37.99414 -141.99561 -58.73047 -200.38281 -63.39551 l -0.22217 -0.04395 c -5.77588 -1.82715 -9.65625 -7.125 -9.65625 -13.18262 V 13.83836 c 0 -4.45508 2.06152 -8.52051 5.65527 -11.15332 c 3.59424 -2.63281 8.09131 -3.37158 12.34082 -2.0293 l 193.01172 61.05029 c 1.15576 0.36572 2.35596 0.55078 3.56641 0.55078 h 244.15186 c 7.62402 0 13.82617 6.20264 13.82617 13.82617 V 403.60204 c 0 7.62402 -6.20215 13.82617 -13.82617 13.82617 Z m -247.646 -2.52734 c 1.13281 0.34961 2.30811 0.52734 3.49414 0.52734 h 244.15186 c 6.521 0 11.82617 -5.30469 11.82617 -11.82617 V 76.08299 c 0 -6.521 -5.30518 -11.82617 -11.82617 -11.82617 h -244.15186 c -1.41553 0 -2.81787 -0.21631 -4.16943 -0.64355 L 258.58242 2.56297 c -3.63428 -1.15039 -7.48096 -0.5166 -10.55518 1.73535 c -3.07422 2.25244 -4.8374 5.72949 -4.8374 9.54004 V 340.10496 c 0 5.14453 3.27148 9.64746 8.15381 11.24219 c 58.59863 4.70312 124.32568 25.49219 200.92627 63.55371 Z" stroke-linecap="round"/>
</g>
		<g transform="matrix(1 0 0 1 120.5949 -21.3458)">
<path style="stroke: none; stroke-width: 1; stroke-dasharray: none; stroke-linecap: butt; stroke-dashoffset: 0; stroke-linejoin: miter; stroke-miterlimit: 4; is-custom-font: none; font-file-url: none; fill: rgb(242,242,242); fill-rule: nonzero; opacity: 1;" transform=" translate(-477.4659, -206.093)" d="M 462.28362 402.61243 c 66.57014 -23.55656 140.83585 -20.85274 219.7317 -2.349 c 9.90448 2.32293 19.40047 -5.13488 19.40047 -15.30812 V 86.84158 c 0 -7.23933 -4.93548 -13.56904 -11.9676 -15.28866 c -83.22864 -20.35257 -160.96879 -24.09712 -229.47889 0.08754 c -5.01901 1.77175 -10.59015 0.81182 -14.82528 -2.41205 C 387.41274 25.28221 328.32862 3.24799 267.48026 9.7905 c -7.96013 0.85589 -13.96422 7.63971 -13.96422 15.64572 V 326.80114 c 0 8.06918 6.10533 14.8162 14.13123 15.65093 c 65.49395 6.81166 125.67579 27.45575 181.64484 59.06964 c 3.963 2.23848 8.70074 2.60906 12.99152 1.09072 Z" stroke-linecap="round"/>
</g>
		<g transform="matrix(1 0 0 1 120.5949 -22.118)">
<path style="stroke: none; stroke-width: 1; stroke-dasharray: none; stroke-linecap: butt; stroke-dashoffset: 0; stroke-linejoin: miter; stroke-miterlimit: 4; is-custom-font: none; font-file-url: none; fill: rgb(255,255,255); fill-rule: nonzero; opacity: 1;" transform=" translate(-477.466, -205.3208)" d="M 460.14589 385.895 c -4.53369 0 -8.99902 -1.24609 -12.93408 -3.68945 c -47.00439 -29.19238 -98.21484 -46.24609 -152.20752 -50.6875 c -12.6582 -1.04199 -22.57422 -11.83887 -22.57422 -24.58105 V 49.52196 c 0 -13.21191 10.24609 -24.0376 23.32666 -24.64551 c 39.31055 -1.83301 87.04199 15.69775 150.20508 55.15039 c 5.34277 3.33643 11.83984 4.32715 17.82617 2.72168 c 60.02832 -16.11328 125.09814 -16.58398 198.93164 -1.43896 c 11.4624 2.35156 19.78223 12.52539 19.78223 24.19189 v 251.26074 c 0 7.58203 -3.41016 14.625 -9.35645 19.32129 c -5.99023 4.73145 -13.69775 6.42773 -21.14746 4.6543 c -69.8457 -16.62402 -129.82178 -15.42285 -183.35889 3.6748 h 0 c -2.78027 0.99219 -5.65088 1.48242 -8.49316 1.48242 Z M 301.36855 26.74754 c -1.86084 0 -3.69629 0.04199 -5.51904 0.12695 c -12.01074 0.55811 -21.41943 10.50586 -21.41943 22.64746 V 306.937 c 0 11.70898 9.10938 21.63086 20.73828 22.58691 c 54.31201 4.46875 105.82178 21.62109 153.09863 50.98242 c 5.88232 3.6543 13.06299 4.39062 19.7002 2.02344 l 0.33594 0.94141 l -0.33594 -0.94141 c 53.91064 -19.23242 114.25977 -20.45508 184.49365 -3.7373 c 6.85107 1.62988 13.9375 0.07227 19.44482 -4.27832 c 5.46289 -4.31543 8.59619 -10.78516 8.59619 -17.75195 V 105.50145 c 0 -10.72119 -7.64746 -20.07129 -18.18457 -22.23291 c -73.521 -15.08203 -138.29053 -14.62012 -198.01074 1.41162 c -6.52197 1.74902 -13.59277 0.67236 -19.4043 -2.95703 c -59.85791 -37.38818 -105.6958 -54.97559 -143.53369 -54.97559 Z" stroke-linecap="round"/>
</g>
		<g transform="matrix(1 -0.0092 0.0092 1 99.1252 7.401)">
<rect style="stroke: none; stroke-width: 1; stroke-dasharray: none; stroke-linecap: butt; stroke-dashoffset: 0; stroke-linejoin: miter; stroke-miterlimit: 4; is-custom-font: none; font-file-url: none; fill: rgb(255,255,255); fill-rule: nonzero; opacity: 1;" x="-1.00005" y="-150.5948" rx="0" ry="0" width="2.0001" height="301.1896"/>
</g>
		<g transform="matrix(0.3141 -0.9494 0.9494 0.3141 4.7588 -138.9557)">
<rect style="stroke: none; stroke-width: 1; stroke-dasharray: none; stroke-linecap: butt; stroke-dashoffset: 0; stroke-linejoin: miter; stroke-miterlimit: 4; is-custom-font: none; font-file-url: none; fill: rgb(63,61,86); fill-rule: nonzero; opacity: 1;" x="-0.9998" y="-73.7499" rx="0" ry="0" width="1.9996" height="147.4998"/>
</g>
		<g transform="matrix(0.3141 -0.9494 0.9494 0.3141 4.7588 -101.8878)">
<rect style="stroke: none; stroke-width: 1; stroke-dasharray: none; stroke-linecap: butt; stroke-dashoffset: 0; stroke-linejoin: miter; stroke-miterlimit: 4; is-custom-font: none; font-file-url: none; fill: rgb(63,61,86); fill-rule: nonzero; opacity: 1;" x="-0.9998" y="-73.7499" rx="0" ry="0" width="1.9996" height="147.4998"/>
</g>
		<g transform="matrix(0.3141 -0.9494 0.9494 0.3141 4.7588 -64.8204)">
<rect style="stroke: none; stroke-width: 1; stroke-dasharray: none; stroke-linecap: butt; stroke-dashoffset: 0; stroke-linejoin: miter; stroke-miterlimit: 4; is-custom-font: none; font-file-url: none; fill: rgb(63,61,86); fill-rule: nonzero; opacity: 1;" x="-0.9998" y="-73.7499" rx="0" ry="0" width="1.9996" height="147.4998"/>
</g>
		<g transform="matrix(0.3141 -0.9494 0.9494 0.3141 4.7588 -27.7531)">
<rect style="stroke: none; stroke-width: 1; stroke-dasharray: none; stroke-linecap: butt; stroke-dashoffset: 0; stroke-linejoin: miter; stroke-miterlimit: 4; is-custom-font: none; font-file-url: none; fill: rgb(63,61,86); fill-rule: nonzero; opacity: 1;" x="-0.9998" y="-73.7499" rx="0" ry="0" width="1.9996" height="147.4998"/>
</g>
		<g transform="matrix(1 0 0 1 216.3528 -113.7288)">
<rect style="stroke: none; stroke-width: 1; stroke-dasharray: none; stroke-linecap: butt; stroke-dashoffset: 0; stroke-linejoin: miter; stroke-miterlimit: 4; is-custom-font: none; font-file-url: none; fill: rgb(63,61,86); fill-rule: nonzero; opacity: 1;" x="-83.91675" y="-1" rx="0" ry="0" width="167.8335" height="2"/>
</g>
		<g transform="matrix(1 0 0 1 216.3528 -78.7205)">
<rect style="stroke: none; stroke-width: 1; stroke-dasharray: none; stroke-linecap: butt; stroke-dashoffset: 0; stroke-linejoin: miter; stroke-miterlimit: 4; is-custom-font: none; font-file-url: none; fill: rgb(63,61,86); fill-rule: nonzero; opacity: 1;" x="-83.91675" y="-1" rx="0" ry="0" width="167.8335" height="2"/>
</g>
		<g transform="matrix(1 0 0 1 216.3528 -43.7127)">
<rect style="stroke: none; stroke-width: 1; stroke-dasharray: none; stroke-linecap: butt; stroke-dashoffset: 0; stroke-linejoin: miter; stroke-miterlimit: 4; is-custom-font: none; font-file-url: none; fill: rgb(63,61,86); fill-rule: nonzero; opacity: 1;" x="-83.91675" y="-1" rx="0" ry="0" width="167.8335" height="2"/>
</g>
		<g transform="matrix(1 0 0 1 216.3528 -8.7039)">
<rect style="stroke: none; stroke-width: 1; stroke-dasharray: none; stroke-linecap: butt; stroke-dashoffset: 0; stroke-linejoin: miter; stroke-miterlimit: 4; is-custom-font: none; font-file-url: none; fill: rgb(63,61,86); fill-rule: nonzero; opacity: 1;" x="-83.91675" y="-1" rx="0" ry="0" width="167.8335" height="2"/>
</g>
		<g transform="matrix(1 0 0 1 216.3528 26.3039)">
<rect style="stroke: none; stroke-width: 1; stroke-dasharray: none; stroke-linecap: butt; stroke-dashoffset: 0; stroke-linejoin: miter; stroke-miterlimit: 4; is-custom-font: none; font-file-url: none; fill: rgb(63,61,86); fill-rule: nonzero; opacity: 1;" x="-83.91675" y="-1" rx="0" ry="0" width="167.8335" height="2"/>
</g>
		<g transform="matrix(1 0 0 1 216.3528 61.3127)">
<rect style="stroke: none; stroke-width: 1; stroke-dasharray: none; stroke-linecap: butt; stroke-dashoffset: 0; stroke-linejoin: miter; stroke-miterlimit: 4; is-custom-font: none; font-file-url: none; fill: rgb(63,61,86); fill-rule: nonzero; opacity: 1;" x="-83.91675" y="-1" rx="0" ry="0" width="167.8335" height="2"/>
</g>
		<g transform="matrix(1 0 0 1 -328.9597 176.4385)">
<path style="stroke: none; stroke-width: 1; stroke-dasharray: none; stroke-linecap: butt; stroke-dashoffset: 0; stroke-linejoin: miter; stroke-miterlimit: 4; is-custom-font: none; font-file-url: none; fill: rgb(242,242,242); fill-rule: nonzero; opacity: 1;" transform=" translate(-27.9112, -403.8773)" d="M 54.25887 437.54464 c -2.06592 0.12937 -3.20768 -2.43737 -1.64468 -3.93333 l 0.1555 -0.61819 c -0.02047 -0.04951 -0.04105 -0.09897 -0.06178 -0.14839 c -2.08924 -4.9818 -9.16992 -4.94742 -11.24139 0.04177 c -1.83859 4.42817 -4.17942 8.86389 -4.75579 13.54594 c -0.25838 2.0668 -0.14213 4.17236 0.31648 6.20047 c -4.30807 -9.41059 -6.57515 -19.68661 -6.57515 -30.02077 c 0 -2.59652 0.14213 -5.19301 0.43275 -7.78295 c 0.239 -2.11854 0.56839 -4.2241 0.99471 -6.31034 c 2.30575 -11.2772 7.29852 -22.01825 14.50012 -30.98962 c 3.46197 -1.89248 6.34906 -4.85065 8.09295 -8.39652 c 0.62649 -1.27891 1.11739 -2.65462 1.34991 -4.05618 c -0.39398 0.05168 -1.48556 -5.94866 -1.18841 -6.3168 c -0.54906 -0.83317 -1.53178 -1.24733 -2.13144 -2.06034 c -2.98232 -4.04341 -7.0912 -3.33741 -9.23621 2.15727 c -4.58224 2.31266 -4.62659 6.14806 -1.81495 9.83683 c 1.78878 2.34682 2.03456 5.52233 3.60408 8.03478 c -0.16151 0.20671 -0.32944 0.40695 -0.4909 0.61366 c -2.96106 3.79788 -5.52208 7.88002 -7.68104 12.16859 c 0.61017 -4.76621 -0.29067 -10.50822 -1.82641 -14.20959 c -1.74819 -4.21732 -5.02491 -7.76915 -7.91045 -11.41501 c -3.46601 -4.37924 -10.57337 -2.46806 -11.18401 3.08332 c -0.00591 0.05375 -0.01166 0.10745 -0.01731 0.1612 c 0.4286 0.24178 0.84849 0.49867 1.25864 0.76992 c 2.33949 1.54723 1.53096 5.17386 -1.24107 5.60174 l -0.06277 0.00967 c 0.15503 1.54366 0.41984 3.07444 0.80734 4.57937 c -3.70179 14.31579 4.29011 19.5299 15.70147 19.76412 c 0.25191 0.12916 0.49738 0.25832 0.74929 0.38109 c -1.15617 3.25525 -2.07982 6.59447 -2.76441 9.97891 c -0.61359 2.99043 -1.03991 6.01317 -1.27885 9.04888 c -0.29715 3.83006 -0.27129 7.67959 0.05168 11.50323 l -0.01939 -0.13562 c -0.82024 -4.21115 -3.10671 -8.14462 -6.4266 -10.87028 c -4.94561 -4.06264 -11.93282 -5.55869 -17.26826 -8.82425 c -2.56833 -1.57196 -5.85945 0.45945 -5.41121 3.43708 l 0.02182 0.14261 c 0.79443 0.32289 1.56947 0.69755 2.31871 1.11733 c 0.4286 0.24184 0.84848 0.49867 1.25864 0.76992 c 2.33949 1.54729 1.53096 5.17392 -1.24107 5.6018 l -0.06282 0.00965 c -0.0452 0.00646 -0.08397 0.01295 -0.12911 0.01944 c 1.36282 3.23581 3.26168 6.23922 5.63854 8.82922 c 2.31463 12.49713 12.25603 13.68282 22.89022 10.04354 h 0.00648 c 1.16259 5.06378 2.86128 10.01127 5.0444 14.72621 h 18.02019 c 0.06463 -0.20022 0.12274 -0.40692 0.18089 -0.60717 c -1.6664 0.10341 -3.34571 0.00649 -4.98629 -0.29702 c 1.33701 -1.64059 2.67396 -3.29409 4.01097 -4.93462 c 0.03229 -0.0323 0.05816 -0.0646 0.08397 -0.09689 c 0.67817 -0.8396 1.36282 -1.67283 2.04099 -2.51246 l 0.00036 -0.00102 c 0.04245 -2.57755 -0.26652 -5.14662 -0.87876 -7.63984 l -0.00057 -0.00035 Z" stroke-linecap="round"/>
</g>
		<g transform="matrix(1 0 0 1 -228.8959 226.2488)">
<path style="stroke: none; stroke-width: 1; stroke-dasharray: none; stroke-linecap: butt; stroke-dashoffset: 0; stroke-linejoin: miter; stroke-miterlimit: 4; is-custom-font: none; font-file-url: none; fill: rgb(204,204,204); fill-rule: nonzero; opacity: 1;" transform=" translate(-127.9752, -453.6876)" d="M 255.81023 453.68759 c 0 0.66003 -0.53003 1.19 -1.19006 1.19 H 1.33018 c -0.65997 0 -1.19 -0.52997 -1.19 -1.19 c 0 -0.65997 0.53003 -1.19 1.19 -1.19 H 254.62016 c 0.66003 0 1.19006 0.53003 1.19006 1.19 Z" stroke-linecap="round"/>
</g>
		<g transform="matrix(1 0 0 1 307.3188 139.9894)">
<circle style="stroke: none; stroke-width: 1; stroke-dasharray: none; stroke-linecap: butt; stroke-dashoffset: 0; stroke-linejoin: miter; stroke-miterlimit: 4; is-custom-font: none; font-file-url: none; fill: rgb(0,78,152); fill-rule: nonzero; opacity: 1;" cx="0" cy="0" r="23"/>
</g>
		<g transform="matrix(1 0 0 1 307.8137 139.9894)">
<path style="stroke: none; stroke-width: 1; stroke-dasharray: none; stroke-linecap: butt; stroke-dashoffset: 0; stroke-linejoin: miter; stroke-miterlimit: 4; is-custom-font: none; font-file-url: none; fill: rgb(255,255,255); fill-rule: nonzero; opacity: 1;" transform=" translate(-664.6848, -367.4282)" d="M 674.96059 366.56218 l -14.27069 -8.24048 c -0.66669 -0.38495 -1.50006 0.09619 -1.50006 0.86603 v 7.24048 h -4.28082 c -0.55231 0 -1 0.44769 -1 1 c 0 0.55225 0.44769 1 1 1 h 4.28082 v 7.24048 c 0 0.76984 0.83337 1.25092 1.50006 0.86597 l 14.27069 -8.24048 c 0.66656 -0.38489 0.66656 -1.34705 0 -1.73199 Z" stroke-linecap="round"/>
</g>
		<g transform="matrix(1 0 0 1 7.3244 53.8868)">
<path style="stroke: none; stroke-width: 1; stroke-dasharray: none; stroke-linecap: butt; stroke-dashoffset: 0; stroke-linejoin: miter; stroke-miterlimit: 4; is-custom-font: none; font-file-url: none; fill: rgb(255,255,255); fill-rule: nonzero; opacity: 1;" transform=" translate(-364.1955, -281.3257)" d="M 336.66835 302.59537 c 0.8958 -10.24959 5.15132 -20.04124 11.96184 -27.74667 c 6.63443 -7.5062 15.70252 -12.65525 25.48162 -14.75293 c 5.45895 -1.17098 11.11392 -1.39948 16.64225 -0.61069 c 1.32338 0.18882 1.2881 2.28999 -0.0493 2.09917 c -9.40895 -1.34249 -19.1338 0.29777 -27.58827 4.64234 c -8.66574 4.45315 -15.60153 11.69619 -19.88606 20.43025 c -2.45018 4.9947 -3.97856 10.44586 -4.46292 15.98783 c -0.11725 1.3415 -2.2171 1.30008 -2.09917 -0.0493 h 0 Z" stroke-linecap="round"/>
</g>
		<g transform="matrix(1 0 0 1 39.0848 34.8273)">
<path style="stroke: none; stroke-width: 1; stroke-dasharray: none; stroke-linecap: butt; stroke-dashoffset: 0; stroke-linejoin: miter; stroke-miterlimit: 4; is-custom-font: none; font-file-url: none; fill: rgb(255,255,255); fill-rule: nonzero; opacity: 1;" transform=" translate(-395.9559, -262.2661)" d="M 388.42593 251.05747 l 16.16239 7.97413 c 0.58787 0.29004 0.68444 1.24748 0.18494 1.66038 l -15.30037 12.64762 c -1.03554 0.856 -2.49312 -0.65649 -1.44947 -1.5192 l 15.30037 -12.64762 l 0.18494 1.66038 l -16.16239 -7.97413 c -1.21371 -0.59881 -0.12439 -2.39558 1.0796 -1.80156 h 0 Z" stroke-linecap="round"/>
</g>
</g>
</g>
</svg>